<svg width="197" height="40" viewBox="0 0 197 40" fill="none" xmlns="http://www.w3.org/2000/svg">
<path d="M14.0006 20C14.0006 8.95431 23.28 3.8147e-06 34.7266 3.8147e-06V40C23.28 40 14.0006 31.0457 14.0006 20Z" fill="#347AE2"/>
<path d="M56.8018 9.63636H52.4964V30H56.8018V9.63636ZM64.5004 21.1705C64.5103 19.2017 65.6836 18.0483 67.3938 18.0483C69.0941 18.0483 70.1183 19.1619 70.1083 21.0312V30H74.3441V20.2756C74.3441 16.7159 72.256 14.5284 69.0742 14.5284C66.8072 14.5284 65.1665 15.642 64.4805 17.4219H64.3015V14.7273H60.2646V30H64.5004V21.1705ZM90.3899 19.0824C90.0121 16.2685 87.745 14.5284 83.8871 14.5284C79.9794 14.5284 77.4041 16.3381 77.4141 19.2812C77.4041 21.5682 78.8459 23.0497 81.8288 23.6463L84.4737 24.1733C85.8061 24.4418 86.4126 24.929 86.4325 25.6946C86.4126 26.5994 85.4283 27.2457 83.9467 27.2457C82.4354 27.2457 81.4311 26.5994 81.1726 25.3565L77.0064 25.5753C77.4041 28.4986 79.8899 30.2983 83.9368 30.2983C87.8942 30.2983 90.728 28.2798 90.7379 25.267C90.728 23.0597 89.2862 21.7372 86.3232 21.1307L83.5589 20.5739C82.1371 20.2656 81.6101 19.7784 81.62 19.0426C81.6101 18.1278 82.6442 17.5312 83.9567 17.5312C85.4283 17.5312 86.3033 18.3366 86.5121 19.321L90.3899 19.0824ZM93.4052 30H97.641V14.7273H93.4052V30ZM95.533 12.7585C96.7958 12.7585 97.8299 11.794 97.8299 10.6108C97.8299 9.4375 96.7958 8.47301 95.533 8.47301C94.2802 8.47301 93.2461 9.4375 93.2461 10.6108C93.2461 11.794 94.2802 12.7585 95.533 12.7585ZM107.915 36.0455C112.28 36.0455 115.382 34.0568 115.382 30.1491V14.7273H111.176V17.2926H111.017C110.45 16.0497 109.207 14.5284 106.652 14.5284C103.301 14.5284 100.467 17.1335 100.467 22.3338C100.467 27.4148 103.222 29.7812 106.662 29.7812C109.098 29.7812 110.46 28.5582 111.017 27.2955H111.196V30.0895C111.196 32.1875 109.854 33.0028 108.014 33.0028C106.145 33.0028 105.2 32.1875 104.852 31.2628L100.935 31.7898C101.442 34.196 103.798 36.0455 107.915 36.0455ZM108.004 26.5994C105.926 26.5994 104.793 24.9489 104.793 22.3139C104.793 19.7188 105.906 17.8991 108.004 17.8991C110.062 17.8991 111.216 19.6392 111.216 22.3139C111.216 25.0085 110.043 26.5994 108.004 26.5994ZM122.989 21.1705C122.999 19.2017 124.202 18.0483 125.932 18.0483C127.652 18.0483 128.666 19.152 128.656 21.0312V30H132.892V20.2756C132.902 16.696 130.794 14.5284 127.612 14.5284C125.295 14.5284 123.744 15.6222 123.048 17.4219H122.869V9.63636H118.753V30H122.989V21.1705ZM144.349 14.7273H141.475V11.0682H137.24V14.7273H135.152V17.9091H137.24V25.8636C137.22 28.8565 139.258 30.3381 142.331 30.2088C143.424 30.169 144.2 29.9503 144.627 29.8111L143.961 26.6591C143.752 26.6989 143.305 26.7983 142.907 26.7983C142.062 26.7983 141.475 26.4801 141.475 25.3068V17.9091H144.349V14.7273ZM171.636 16.7656C171.069 12.0625 167.509 9.35795 162.796 9.35795C157.417 9.35795 153.31 13.1562 153.31 19.8182C153.31 26.4602 157.347 30.2784 162.796 30.2784C168.016 30.2784 171.168 26.8082 171.636 23.0597L167.281 23.0398C166.873 25.2173 165.163 26.4702 162.866 26.4702C159.773 26.4702 157.675 24.1733 157.675 19.8182C157.675 15.5824 159.744 13.1662 162.896 13.1662C165.252 13.1662 166.952 14.5284 167.281 16.7656H171.636ZM193.436 19.8182C193.436 13.1562 189.3 9.35795 183.901 9.35795C178.472 9.35795 174.365 13.1562 174.365 19.8182C174.365 26.4503 178.472 30.2784 183.901 30.2784C189.3 30.2784 193.436 26.4801 193.436 19.8182ZM189.071 19.8182C189.071 24.1335 187.023 26.4702 183.901 26.4702C180.768 26.4702 178.73 24.1335 178.73 19.8182C178.73 15.5028 180.768 13.1662 183.901 13.1662C187.023 13.1662 189.071 15.5028 189.071 19.8182Z" fill="#062046"/>
<rect width="14" height="40" fill="#347AE2"/>
</svg>
