<svg width="24" height="18" viewBox="0 0 24 18" fill="none" xmlns="http://www.w3.org/2000/svg">
<g clip-path="url(#clip0_204_6788)">
<mask id="mask0_204_6788" style="mask-type:luminance" maskUnits="userSpaceOnUse" x="0" y="0" width="24" height="18">
<rect width="24" height="18" fill="white"/>
</mask>
<g mask="url(#mask0_204_6788)">
<path fill-rule="evenodd" clip-rule="evenodd" d="M0 0H24V18H0V0Z" fill="#F7FCFF"/>
<path fill-rule="evenodd" clip-rule="evenodd" d="M0 11V12.5H24V11H0Z" fill="#E31D1C"/>
<path fill-rule="evenodd" clip-rule="evenodd" d="M0 13.75V15.25H24V13.75H0Z" fill="#E31D1C"/>
<path fill-rule="evenodd" clip-rule="evenodd" d="M0 5.5V7H24V5.5H0Z" fill="#E31D1C"/>
<path fill-rule="evenodd" clip-rule="evenodd" d="M0 16.5V18H24V16.5H0Z" fill="#E31D1C"/>
<path fill-rule="evenodd" clip-rule="evenodd" d="M0 8.25V9.75H24V8.25H0Z" fill="#E31D1C"/>
<path fill-rule="evenodd" clip-rule="evenodd" d="M0 0V1.5H24V0H0Z" fill="#E31D1C"/>
<path fill-rule="evenodd" clip-rule="evenodd" d="M0 2.75V4.25H24V2.75H0Z" fill="#E31D1C"/>
<rect width="15" height="9.75" fill="#2E42A5"/>
<path fill-rule="evenodd" clip-rule="evenodd" d="M1.29337 2.20415L0.748957 2.58582L0.932756 1.90661L0.449219 1.47618H1.08078L1.29261 0.921875L1.54098 1.47618H2.07938L1.65635 1.90661L1.82012 2.58582L1.29337 2.20415ZM4.29337 2.20415L3.74896 2.58582L3.93276 1.90661L3.44922 1.47618H4.08078L4.29261 0.921875L4.54099 1.47618H5.07938L4.65635 1.90661L4.82012 2.58582L4.29337 2.20415ZM6.74896 2.58582L7.29337 2.20415L7.82012 2.58582L7.65635 1.90661L8.07938 1.47618H7.54098L7.29261 0.921875L7.08078 1.47618H6.44922L6.93276 1.90661L6.74896 2.58582ZM10.2934 2.20415L9.74896 2.58582L9.93276 1.90661L9.44922 1.47618H10.0808L10.2926 0.921875L10.541 1.47618H11.0794L10.6563 1.90661L10.8201 2.58582L10.2934 2.20415ZM0.748957 5.58582L1.29337 5.20415L1.82012 5.58582L1.65635 4.90661L2.07938 4.47618H1.54098L1.29261 3.92187L1.08078 4.47618H0.449219L0.932756 4.90661L0.748957 5.58582ZM4.29337 5.20415L3.74896 5.58582L3.93276 4.90661L3.44922 4.47618H4.08078L4.29261 3.92187L4.54099 4.47618H5.07938L4.65635 4.90661L4.82012 5.58582L4.29337 5.20415ZM6.74896 5.58582L7.29337 5.20415L7.82012 5.58582L7.65635 4.90661L8.07938 4.47618H7.54098L7.29261 3.92187L7.08078 4.47618H6.44922L6.93276 4.90661L6.74896 5.58582ZM10.2934 5.20415L9.74896 5.58582L9.93276 4.90661L9.44922 4.47618H10.0808L10.2926 3.92187L10.541 4.47618H11.0794L10.6563 4.90661L10.8201 5.58582L10.2934 5.20415ZM0.748957 8.58582L1.29337 8.20415L1.82012 8.58582L1.65635 7.90661L2.07938 7.47618H1.54098L1.29261 6.92188L1.08078 7.47618H0.449219L0.932756 7.90661L0.748957 8.58582ZM4.29337 8.20415L3.74896 8.58582L3.93276 7.90661L3.44922 7.47618H4.08078L4.29261 6.92188L4.54099 7.47618H5.07938L4.65635 7.90661L4.82012 8.58582L4.29337 8.20415ZM6.74896 8.58582L7.29337 8.20415L7.82012 8.58582L7.65635 7.90661L8.07938 7.47618H7.54098L7.29261 6.92188L7.08078 7.47618H6.44922L6.93276 7.90661L6.74896 8.58582ZM10.2934 8.20415L9.74896 8.58582L9.93276 7.90661L9.44922 7.47618H10.0808L10.2926 6.92188L10.541 7.47618H11.0794L10.6563 7.90661L10.8201 8.58582L10.2934 8.20415ZM12.749 2.58582L13.2934 2.20415L13.8201 2.58582L13.6564 1.90661L14.0794 1.47618H13.541L13.2926 0.921875L13.0808 1.47618H12.4492L12.9328 1.90661L12.749 2.58582ZM13.2934 5.20415L12.749 5.58582L12.9328 4.90661L12.4492 4.47618H13.0808L13.2926 3.92187L13.541 4.47618H14.0794L13.6564 4.90661L13.8201 5.58582L13.2934 5.20415ZM12.749 8.58582L13.2934 8.20415L13.8201 8.58582L13.6564 7.90661L14.0794 7.47618H13.541L13.2926 6.92188L13.0808 7.47618H12.4492L12.9328 7.90661L12.749 8.58582ZM2.79337 3.70415L2.24896 4.08582L2.43276 3.40661L1.94922 2.97618H2.58078L2.79261 2.42187L3.04098 2.97618H3.57938L3.15635 3.40661L3.32012 4.08582L2.79337 3.70415ZM5.24896 4.08582L5.79337 3.70415L6.32012 4.08582L6.15635 3.40661L6.57938 2.97618H6.04098L5.79261 2.42187L5.58078 2.97618H4.94922L5.43276 3.40661L5.24896 4.08582ZM8.79337 3.70415L8.24896 4.08582L8.43276 3.40661L7.94922 2.97618H8.58078L8.79261 2.42187L9.04099 2.97618H9.57938L9.15635 3.40661L9.32012 4.08582L8.79337 3.70415ZM2.24896 7.08582L2.79337 6.70415L3.32012 7.08582L3.15635 6.40661L3.57938 5.97618H3.04098L2.79261 5.42188L2.58078 5.97618H1.94922L2.43276 6.40661L2.24896 7.08582ZM5.79337 6.70415L5.24896 7.08582L5.43276 6.40661L4.94922 5.97618H5.58078L5.79261 5.42188L6.04098 5.97618H6.57938L6.15635 6.40661L6.32012 7.08582L5.79337 6.70415ZM8.24896 7.08582L8.79337 6.70415L9.32012 7.08582L9.15635 6.40661L9.57938 5.97618H9.04099L8.79261 5.42188L8.58078 5.97618H7.94922L8.43276 6.40661L8.24896 7.08582ZM11.7934 3.70415L11.249 4.08582L11.4328 3.40661L10.9492 2.97618H11.5808L11.7926 2.42187L12.041 2.97618H12.5794L12.1563 3.40661L12.3201 4.08582L11.7934 3.70415ZM11.249 7.08582L11.7934 6.70415L12.3201 7.08582L12.1563 6.40661L12.5794 5.97618H12.041L11.7926 5.42188L11.5808 5.97618H10.9492L11.4328 6.40661L11.249 7.08582Z" fill="#F7FCFF"/>
</g>
</g>
<defs>
<clipPath id="clip0_204_6788">
<rect width="24" height="18" rx="2" fill="white"/>
</clipPath>
</defs>
</svg>
